<?xml version="1.0" standalone="no"?>
<!DOCTYPE svg PUBLIC "-//W3C//DTD SVG 20010904//EN"
 "http://www.w3.org/TR/2001/REC-SVG-20010904/DTD/svg10.dtd">
<svg version="1.0" xmlns="http://www.w3.org/2000/svg"
 width="500.000000pt" height="500.000000pt" viewBox="0 0 500.000000 500.000000"
 preserveAspectRatio="xMidYMid meet">

<g transform="translate(0.000000,500.000000) scale(0.100000,-0.100000)"
fill="#000000" stroke="none">
<path d="M2487 2873 c-22 -36 -43 -410 -24 -429 13 -13 16 0 42 142 28 153 42
204 55 204 15 0 29 -69 36 -177 4 -57 10 -103 14 -103 5 0 11 24 15 53 16 135
46 249 73 280 15 17 16 17 26 0 7 -11 12 -101 13 -228 1 -245 1 -235 14 -213
5 10 10 100 11 205 1 208 -9 265 -49 271 -28 4 -49 -26 -75 -113 l-22 -70 -9
45 c-9 43 -31 80 -48 80 -19 0 -45 -58 -60 -134 -20 -97 -24 -58 -8 79 11 93
10 130 -4 108z"/>
<path d="M1210 2698 c-56 -13 -140 -96 -188 -186 -18 -34 -62 -106 -98 -159
-86 -130 -106 -185 -112 -304 -6 -134 24 -251 82 -324 15 -18 15 -17 1 24 -15
43 -21 185 -9 214 4 13 15 9 52 -20 26 -19 56 -51 67 -70 31 -50 71 -73 130
-73 56 0 104 24 131 65 9 14 31 33 48 42 17 9 47 29 67 44 l37 29 6 -31 c10
-51 7 -121 -8 -179 -14 -54 -14 -55 4 -32 11 13 29 49 41 80 68 181 42 371
-73 520 -51 66 -62 134 -30 192 22 41 75 80 108 80 43 0 25 21 -48 55 -83 38
-143 48 -208 33z m70 -78 c8 -14 8 -26 0 -40 -19 -35 -80 -20 -80 20 0 40 61
55 80 20z m-33 -422 c70 -42 101 -148 64 -223 l-19 -40 -1 30 c-1 17 -10 45
-21 63 -59 96 -206 97 -264 0 -23 -39 -24 -39 -30 -14 -8 34 8 103 31 135 58
77 159 98 240 49z m-53 -122 c60 -25 101 -111 75 -158 -7 -13 -14 -29 -15 -36
-6 -36 -68 -72 -122 -72 -33 0 -88 34 -111 69 -15 24 -15 24 7 12 12 -6 22
-16 22 -20 0 -13 64 -41 92 -41 23 0 108 48 105 59 0 3 3 20 7 37 15 64 -48
144 -112 144 -62 0 -121 -57 -123 -117 l0 -28 -12 24 c-23 48 59 141 125 141
16 0 44 -6 62 -14z m-37 -72 c14 -13 14 -17 2 -24 -11 -7 -11 -12 -1 -22 16
-16 15 -36 -3 -54 -13 -13 -17 -13 -37 7 -18 17 -19 20 -5 16 18 -7 25 17 7
28 -14 9 -13 33 3 50 15 18 15 18 34 -1z"/>
<path d="M2910 2664 c-6 -14 -10 -29 -10 -34 0 -15 -51 -70 -66 -70 -17 0 -18
35 -3 79 12 34 4 55 -12 31 -20 -32 -31 -93 -20 -117 16 -34 48 -29 89 14 l35
38 -7 -59 c-5 -47 -14 -69 -40 -100 -72 -89 -97 -177 -51 -184 19 -3 20 -9 17
-71 -7 -111 28 -180 111 -223 51 -26 145 -28 180 -5 22 14 26 14 31 2 3 -10
20 -15 46 -15 l40 0 0 130 0 130 -85 0 -85 0 0 -40 c0 -39 1 -40 35 -40 32 0
35 -2 35 -30 0 -23 -7 -33 -30 -45 -74 -38 -159 -3 -180 75 -34 125 83 224
189 159 l34 -21 30 31 c27 26 29 32 16 47 -46 55 -173 70 -253 30 l-48 -24 7
25 c3 14 9 39 12 57 3 17 24 51 48 76 67 72 96 111 89 121 -3 6 -32 -18 -64
-53 l-59 -63 -1 88 c0 88 -11 111 -30 61z m-25 -303 c-9 -27 -25 -57 -37 -67
-21 -19 -21 -19 -15 18 6 39 59 128 65 109 2 -6 -4 -33 -13 -60z"/>
<path d="M1565 2378 c-3 -13 -4 -113 -3 -223 l3 -200 95 -3 c115 -3 172 14
201 62 27 44 25 98 -5 133 -24 28 -24 29 -5 52 13 16 19 39 19 73 0 90 -64
128 -217 128 -77 0 -83 -1 -88 -22z m195 -88 c11 -11 20 -24 20 -29 0 -19 -45
-41 -82 -41 l-38 0 0 45 0 45 40 0 c27 0 47 -7 60 -20z m-6 -170 c19 -7 26
-17 26 -35 0 -29 -30 -45 -86 -45 -34 0 -34 0 -34 45 0 45 0 45 34 45 19 0 46
-4 60 -10z"/>
<path d="M1957 2394 c-11 -11 -8 -275 3 -316 23 -81 91 -131 180 -131 90 0
158 48 180 127 6 24 10 98 8 181 l-3 140 -181 3 c-99 1 -183 -1 -187 -4z m273
-194 c0 -104 -1 -112 -25 -135 -16 -17 -35 -25 -59 -25 -79 0 -96 30 -96 170
l0 100 90 0 90 0 0 -110z"/>
<path d="M2425 2379 c-3 -13 -4 -114 -3 -224 l3 -200 85 1 c96 0 146 14 192
52 88 74 91 251 7 329 -39 36 -97 54 -190 60 -86 6 -88 6 -94 -18z m193 -99
c37 -23 52 -54 52 -112 0 -72 -41 -115 -115 -121 l-30 -2 -3 128 -3 127 33 0
c18 0 48 -9 66 -20z"/>
<path d="M3345 2388 c-3 -8 -4 -108 -3 -223 l3 -210 153 -3 152 -3 0 46 0 45
-105 0 -105 0 0 45 0 44 88 3 87 3 0 40 0 40 -87 3 -88 3 0 44 0 45 106 0 105
0 -3 43 -3 42 -148 3 c-114 2 -149 0 -152 -10z"/>
<path d="M3684 2386 c-3 -8 -4 -27 -2 -43 3 -25 7 -28 45 -31 l43 -3 2 -177 3
-177 48 -3 47 -3 0 180 0 180 43 3 c42 3 42 3 42 43 l0 40 -133 3 c-108 2
-133 0 -138 -12z"/>
<path d="M2021 1849 c-5 -13 -25 -64 -45 -113 -20 -50 -36 -91 -36 -93 0 -11
52 0 56 12 4 9 19 15 35 15 17 0 32 -6 35 -15 7 -16 54 -21 54 -5 0 10 -79
212 -86 219 -2 2 -8 -7 -13 -20z m28 -136 c1 -7 -6 -13 -14 -13 -16 0 -19 17
-8 46 6 16 7 16 14 -2 4 -10 8 -25 8 -31z"/>
<path d="M2441 1849 c-5 -13 -25 -64 -45 -113 -20 -50 -36 -91 -36 -93 0 -11
52 0 56 12 4 9 19 15 35 15 17 0 32 -6 35 -15 7 -16 54 -21 54 -5 0 10 -79
212 -86 219 -2 2 -8 -7 -13 -20z m28 -136 c1 -7 -6 -13 -14 -13 -16 0 -19 17
-8 46 6 16 7 16 14 -2 4 -10 8 -25 8 -31z"/>
<path d="M2623 1855 c-54 -23 -79 -100 -51 -159 19 -42 49 -56 127 -55 l71 1
0 64 0 64 -45 0 c-38 0 -45 -3 -45 -20 0 -13 7 -20 20 -20 28 0 25 -29 -5 -40
-56 -21 -100 29 -79 89 12 33 57 50 85 33 16 -10 24 -10 35 -1 22 18 17 29
-21 45 -42 17 -51 17 -92 -1z"/>
<path d="M1670 1750 l0 -110 25 0 c23 0 25 3 25 53 l0 52 27 -47 c19 -34 33
-48 48 -48 15 0 28 13 46 48 l24 47 3 -52 c3 -45 6 -53 23 -53 18 0 19 8 19
110 0 108 0 110 -23 110 -19 0 -29 -13 -57 -76 l-33 -77 -39 77 c-32 64 -42
76 -63 76 l-25 0 0 -110z"/>
<path d="M2150 1750 c0 -102 1 -110 20 -110 17 0 19 8 22 68 l3 67 45 -65 c35
-50 51 -65 70 -65 25 0 25 1 28 108 l3 107 -26 0 c-24 0 -25 -2 -25 -61 0 -72
-8 -70 -60 12 -24 36 -38 49 -56 49 -24 0 -24 -1 -24 -110z"/>
<path d="M2810 1750 l0 -110 81 0 c78 0 80 1 77 23 -3 19 -10 22 -55 25 -45 3
-53 6 -53 23 0 16 7 19 46 19 41 0 45 2 42 23 -2 18 -10 23 -45 25 -35 3 -43
7 -43 23 0 16 7 19 50 19 43 0 50 3 50 20 0 18 -7 20 -75 20 l-75 0 0 -110z"/>
<path d="M3000 1750 l0 -110 25 0 c23 0 25 3 25 53 l0 52 27 -47 c19 -34 33
-48 48 -48 15 0 28 13 46 48 l24 47 3 -52 c3 -45 6 -53 23 -53 18 0 19 8 19
110 0 108 0 110 -23 110 -19 0 -29 -13 -57 -76 l-33 -77 -39 77 c-32 64 -42
76 -63 76 l-25 0 0 -110z"/>
<path d="M3290 1750 l0 -110 81 0 c78 0 80 1 77 23 -3 19 -10 22 -55 25 -45 3
-53 6 -53 23 0 16 7 19 46 19 41 0 45 2 42 23 -2 18 -10 23 -45 25 -35 3 -43
7 -43 23 0 16 7 19 50 19 43 0 50 3 50 20 0 18 -7 20 -75 20 l-75 0 0 -110z"/>
<path d="M3480 1750 l0 -110 25 0 c23 0 24 3 27 65 l3 65 44 -65 c33 -49 50
-65 68 -65 23 0 23 1 23 110 l0 110 -25 0 c-23 0 -24 -4 -27 -61 l-3 -61 -43
61 c-33 47 -49 61 -67 61 l-25 0 0 -110z"/>
<path d="M3700 1840 c0 -13 7 -20 20 -20 19 0 20 -7 20 -90 0 -89 0 -90 25
-90 25 0 25 1 25 90 0 89 0 90 25 90 18 0 25 5 25 20 0 18 -7 20 -70 20 -63 0
-70 -2 -70 -20z"/>
<path d="M1023 1710 c-43 -17 -24 -30 42 -30 68 0 85 13 39 30 -30 12 -51 12
-81 0z"/>
<path d="M1214 1710 c-48 -19 -35 -30 35 -30 74 0 88 9 46 28 -30 14 -51 14
-81 2z"/>
</g>
</svg>
